<?xml version="1.0" encoding="utf-8"?>
<!-- Generator: Adobe Illustrator 25.0.1, SVG Export Plug-In . SVG Version: 6.00 Build 0)  -->
<svg version="1.1" id="Layer_1" xmlns="http://www.w3.org/2000/svg" xmlns:xlink="http://www.w3.org/1999/xlink" x="0px" y="0px"
	 viewBox="0 0 636.3 763.7" style="enable-background:new 0 0 636.3 763.7;" xml:space="preserve">
<style type="text/css">
	.st0{fill:#FFFFFF;}
</style>
<path class="st0" d="M636.3,0h-541C69.9,0.1,46,10.1,28.1,28.1C10.1,46,0.1,69.9,0,95.3v572.8h1c0,52,41.8,94.7,93.9,95.5l509.5,0
	v-31.8h0.2v-95.5h31.7V0z M286.3,63.7v330.7l-32.6-16.1l-31,15.6V63.7H286.3z M63.7,95.7c0.1-17.6,14.4-31.9,32-32H159v433.5
	l95-47.7l96,47.3v-433h222.7v509h-476c-0.1,0-0.2,0-0.3,0c0,0-0.1,0-0.1,0h-0.7c-0.3,0-0.7,0-1,0c-0.3,0-0.6,0-0.9,0
	c-10.5,0.2-20.5,2.1-29.9,5.4V95.7z M541,700H95.8c-17.4-0.4-31.3-14.9-31.1-32.3c0.1-8.3,3.4-16.1,9.3-22l0.1-0.1
	c5.8-5.9,13.9-9.2,22.1-9.2H541V700z"/>
</svg>
